<?xml version="1.0" encoding="utf-8"?>
<!-- Generator: Adobe Illustrator 19.2.0, SVG Export Plug-In . SVG Version: 6.00 Build 0)  -->
<svg version="1.1" id="Layer_1" xmlns="http://www.w3.org/2000/svg" xmlns:xlink="http://www.w3.org/1999/xlink" x="0px" y="0px"
	 viewBox="0 0 1920 1080" style="enable-background:new 0 0 1920 1080;" xml:space="preserve">
<style type="text/css">
	.st0{fill:#E24B4B;}
	.st1{fill:#333333;}
	.st2{fill:#CCCCCC;}
	.st3{fill:#405A7F;}
	.st4{fill:#754C24;}
	.st5{fill:#4D4D4D;}
	.st6{fill:#8C6239;}
	.st7{fill:#BCA184;}
	.st8{fill:#C7B299;}
	.st9{fill:#E6E6E6;}
	.st10{fill:#666666;}
	.st11{fill:none;stroke:#E6E6E6;stroke-width:3;stroke-miterlimit:10;}
	.st12{fill:#BDCCD4;}
	.st13{fill:#A8BDC6;}
	.st14{fill:none;stroke:#7F99A5;stroke-miterlimit:10;}
	.st15{fill:#FFC06C;}
	.st16{fill:#C1272D;}
	.st17{fill:#FFF0B3;}
	.st18{fill:#603813;}
	.st19{fill:#999999;}
	.st20{fill:#2F455B;}
	.st21{fill:#BF844F;}
	.st22{fill:#C13A3A;}
	.st23{fill:#F2F2F2;}
	.st24{fill:#A06D42;}
	.st25{fill:none;stroke:#8C6239;stroke-width:4.5315;stroke-linecap:round;stroke-miterlimit:10;}
</style>
<g>
	<g>
		<path class="st0" d="M917.6,711.8H736.3c-10.9,0-19.7-8.8-19.7-19.7v-79.5c0-10.9,8.8-19.7,19.7-19.7h181.3
			c10.9,0,19.7,8.8,19.7,19.7v79.5C937.2,703,928.4,711.8,917.6,711.8z"/>
		<path class="st0" d="M917.6,565.5H736.3c-10.9,0-19.7-8.8-19.7-19.7v-79.5c0-10.9,8.8-19.7,19.7-19.7h181.3
			c10.9,0,19.7,8.8,19.7,19.7v79.5C937.2,556.7,928.4,565.5,917.6,565.5z"/>
		<rect x="803.2" y="722.7" class="st1" width="47.4" height="17.1"/>
		<path class="st1" d="M909.8,724.4H744.1c-3.5,0-6.3-2.8-6.3-6.3l0,0c0-3.5,2.8-6.3,6.3-6.3h165.7c3.5,0,6.3,2.8,6.3,6.3l0,0
			C916,721.6,913.2,724.4,909.8,724.4z"/>
		<rect x="815.3" y="739.8" class="st2" width="23.1" height="73.7"/>
		<path class="st2" d="M736.4,827.8v50.3h17.2v-33c0-7.9,6.4-14.3,14.3-14.3H886c7.9,0,14.3,6.4,14.3,14.3v33h17.2v-50.3
			c0-7.9-6.4-14.3-14.3-14.3H750.7C742.8,813.5,736.4,819.9,736.4,827.8z"/>
		<rect x="803.2" y="796.4" class="st1" width="47.4" height="17.1"/>
		<path class="st2" d="M736.4,827.8v50.3h17.2v-33c0-7.9,6.4-14.3,14.3-14.3H886c7.9,0,14.3,6.4,14.3,14.3v33h17.2v-50.3
			c0-7.9-6.4-14.3-14.3-14.3H750.7C742.8,813.5,736.4,819.9,736.4,827.8z"/>
		<path class="st2" d="M781.4,827.8v50.3h17.2v-33c0-7.9,6.4-14.3,14.3-14.3H841c7.9,0,14.3,6.4,14.3,14.3v33h17.2v-50.3
			c0-7.9-6.4-14.3-14.3-14.3h-62.4C787.8,813.5,781.4,819.9,781.4,827.8z"/>
		<circle class="st1" cx="744.4" cy="878.1" r="15.2"/>
		<circle class="st1" cx="790.7" cy="878.1" r="15.2"/>
		<circle class="st1" cx="863.6" cy="878.1" r="15.2"/>
		<circle class="st1" cx="909.9" cy="878.1" r="15.2"/>
	</g>
	<rect x="763.9" y="638.8" class="st1" width="162.7" height="23"/>
	<path class="st3" d="M787.3,424.5h84.1c18.7,0,33.9,15.2,33.9,33.9v173.6h-152V458.5C753.4,439.7,768.5,424.5,787.3,424.5z"/>
	<path class="st4" d="M981.1,854l-10.2,39h85.9c0,0-3-18-22.9-21.5c-19.8-3.6-36.6,7.7-36.6,7.7l1-25.2H981.1z"/>
	<path class="st4" d="M899.1,854l-10.2,39h85.9c0,0-3-18-22.9-21.5c-19.8-3.6-36.6,7.7-36.6,7.7l1-25.2H899.1z"/>
	<path class="st1" d="M976.8,652.5L846,638.8l-8.8,28.6c-3.3,10.9,2.7,22.4,13.6,25.7l118.5,7.7l-3.9,156.1h46.5l5.6-158.9
		c-1.6-22.7,1.1-34.8-25.9-43.4L976.8,652.5z"/>
	<path class="st5" d="M902.2,652.5l-138.6-13.7l-1.1,28.6c-0.9,14.1,2.7,22.4,13.6,25.7l118.5,7.7l-3.9,156.1h46.5l5.6-158.9
		c-1.6-22.7,1.1-34.8-25.9-43.4L902.2,652.5z"/>
	<path class="st6" d="M1466.1,625H453.9c-9.1,0-16.5-7.4-16.5-16.5l0,0c0-9.1,7.4-16.5,16.5-16.5h1012.3c9.1,0,16.5,7.4,16.5,16.5
		l0,0C1482.6,617.7,1475.2,625,1466.1,625z"/>
	<rect x="1231.4" y="906.1" class="st4" width="61.6" height="14.8"/>
	<rect x="1401.8" y="906.1" class="st4" width="61.6" height="14.8"/>
	
		<rect x="1231" y="625" transform="matrix(-1 -1.224647e-16 1.224647e-16 -1 2694.3945 1531.1725)" class="st6" width="232.5" height="281.1"/>
	<rect x="453.8" y="906.1" class="st4" width="61.6" height="14.8"/>
	<rect x="624.2" y="906.1" class="st4" width="61.6" height="14.8"/>
	
		<rect x="453.3" y="625" transform="matrix(-1 -1.224647e-16 1.224647e-16 -1 1139.1381 1531.1725)" class="st6" width="232.5" height="281.1"/>
	<rect x="453.3" y="625" class="st4" width="1010.1" height="14.8"/>
	<g>
		<path class="st7" d="M630.2,570.6c-10.4,0-18.8-8.5-18.8-18.8c0-10.4,8.5-18.8,18.8-18.8c10.4,0,18.8,8.5,18.8,18.8
			C649.1,562.1,640.6,570.6,630.2,570.6z M630.2,540.8c-6,0-10.9,4.9-10.9,10.9s4.9,10.9,10.9,10.9s10.9-4.9,10.9-10.9
			S636.3,540.8,630.2,540.8z"/>
		<path class="st8" d="M612.9,593h-27.3c-9.1,0-16.6-7.4-16.6-16.6v-47.2c0-1.8,1.4-3.2,3.2-3.2h53.9c1.8,0,3.2,1.4,3.2,3.2v47.2
			C629.5,585.6,622.1,593,612.9,593z"/>
		<path class="st7" d="M626.2,526h-11.4c1.8,0,3.2,1.4,3.2,3.2v47.2c0,9.1-7.3,16.6-16.5,16.6h11.4c9.1,0,17.1-7.4,17.1-16.6v-47.2
			C630,527.4,628,526,626.2,526z"/>
		<path class="st9" d="M585.6,517.6L585.6,517.6c-1.8,0-3.2-1.4-3.2-3.2v-17.1c0-1.8,1.4-3.2,3.2-3.2l0,0c1.8,0,3.2,1.4,3.2,3.2
			v17.1C588.8,516.2,587.4,517.6,585.6,517.6z"/>
		<path class="st9" d="M600,517.6L600,517.6c-1.8,0-3.2-1.4-3.2-3.2v-32.6c0-1.8,1.4-3.2,3.2-3.2l0,0c1.8,0,3.2,1.4,3.2,3.2v32.6
			C603.1,516.2,601.7,517.6,600,517.6z"/>
		<path class="st9" d="M614.3,517.6L614.3,517.6c-1.8,0-3.2-1.4-3.2-3.2V491c0-1.8,1.4-3.2,3.2-3.2l0,0c1.8,0,3.2,1.4,3.2,3.2v23.4
			C617.4,516.2,616,517.6,614.3,517.6z"/>
	</g>
	<g>
		<g>
			<path class="st9" d="M1357.8,553.8c0,0,4.5-13.5,4.5-21.5s-10.9-7.6-10.9,0s4.5,21.5,4.5,21.5
				C1356.1,555.2,1357.5,555.2,1357.8,553.8z"/>
			<path class="st10" d="M1356.8,457.7L1356.8,457.7c1.5,0,2.7-1.2,2.7-2.7v-8.8c0-1.5-1.2-2.7-2.7-2.7h0c-1.5,0-2.7,1.2-2.7,2.7
				v8.8C1354.1,456.5,1355.3,457.7,1356.8,457.7z"/>
			
				<rect x="1351.3" y="451.1" transform="matrix(-1 4.506960e-11 -4.506960e-11 -1 2713.5833 983.3433)" class="st1" width="10.9" height="81.2"/>
			<polyline class="st11" points="1362.2,459.6 1347.9,459.6 1347.9,497.5 			"/>
			<path class="st10" d="M1356.4,500.7L1356.4,500.7c1.3,0,2.4-1.1,2.4-2.4v-28.8c0-1.3-1.1-2.4-2.4-2.4l0,0c-1.3,0-2.4,1.1-2.4,2.4
				v28.8C1354.1,499.7,1355.1,500.7,1356.4,500.7z"/>
			<path class="st1" d="M1358.2,552.4c-0.3,0.8-0.4,1.3-0.4,1.3c-0.3,1.5-1.7,1.5-2,0c0,0-0.2-0.5-0.4-1.3H1358.2z"/>
		</g>
		<g>
			<rect x="1369.5" y="425.6" class="st12" width="27.4" height="133.4"/>
			<rect x="1388.3" y="425.6" class="st13" width="8.5" height="133.4"/>
			<line class="st14" x1="1373.1" y1="433.1" x2="1382.1" y2="433.1"/>
			<line class="st14" x1="1373.1" y1="471.3" x2="1382.1" y2="471.3"/>
			<line class="st14" x1="1373.1" y1="452.2" x2="1379.4" y2="452.2"/>
			<line class="st14" x1="1373.1" y1="436.9" x2="1376.7" y2="436.9"/>
			<line class="st14" x1="1373.1" y1="440.7" x2="1376.7" y2="440.7"/>
			<line class="st14" x1="1373.1" y1="444.5" x2="1376.7" y2="444.5"/>
			<line class="st14" x1="1373.1" y1="448.4" x2="1376.7" y2="448.4"/>
			<line class="st14" x1="1373.1" y1="456" x2="1376.7" y2="456"/>
			<line class="st14" x1="1373.1" y1="459.8" x2="1376.7" y2="459.8"/>
			<line class="st14" x1="1373.1" y1="463.6" x2="1376.7" y2="463.6"/>
			<line class="st14" x1="1373.1" y1="467.5" x2="1376.7" y2="467.5"/>
			<line class="st14" x1="1373.1" y1="509.9" x2="1382.1" y2="509.9"/>
			<line class="st14" x1="1373.1" y1="490.8" x2="1379.4" y2="490.8"/>
			<line class="st14" x1="1373.1" y1="475.5" x2="1376.7" y2="475.5"/>
			<line class="st14" x1="1373.1" y1="479.3" x2="1376.7" y2="479.3"/>
			<line class="st14" x1="1373.1" y1="483.1" x2="1376.7" y2="483.1"/>
			<line class="st14" x1="1373.1" y1="487" x2="1376.7" y2="487"/>
			<line class="st14" x1="1373.1" y1="494.6" x2="1376.7" y2="494.6"/>
			<line class="st14" x1="1373.1" y1="498.4" x2="1376.7" y2="498.4"/>
			<line class="st14" x1="1373.1" y1="502.2" x2="1376.7" y2="502.2"/>
			<line class="st14" x1="1373.1" y1="506.1" x2="1376.7" y2="506.1"/>
			<line class="st14" x1="1373.1" y1="548.5" x2="1382.1" y2="548.5"/>
			<line class="st14" x1="1373.1" y1="529.4" x2="1379.4" y2="529.4"/>
			<line class="st14" x1="1373.1" y1="514.1" x2="1376.7" y2="514.1"/>
			<line class="st14" x1="1373.1" y1="517.9" x2="1376.7" y2="517.9"/>
			<line class="st14" x1="1373.1" y1="521.7" x2="1376.7" y2="521.7"/>
			<line class="st14" x1="1373.1" y1="525.6" x2="1376.7" y2="525.6"/>
			<line class="st14" x1="1373.1" y1="533.2" x2="1376.7" y2="533.2"/>
			<line class="st14" x1="1373.1" y1="537" x2="1376.7" y2="537"/>
			<line class="st14" x1="1373.1" y1="540.8" x2="1376.7" y2="540.8"/>
			<line class="st14" x1="1373.1" y1="544.7" x2="1376.7" y2="544.7"/>
		</g>
		<g>
			<rect x="1394.5" y="453.8" class="st15" width="11.9" height="95.8"/>
			<rect x="1394.5" y="444.8" class="st9" width="12.3" height="9"/>
			<path class="st16" d="M1406.8,444.8h-12.3v-4c0-2.2,0-4,2.5-4h7.1c2.7,0,2.7,2,2.7,4.4V444.8z"/>
			<polygon class="st17" points="1400.6,565 1394.5,549.6 1406.8,549.6 			"/>
			<polygon class="st18" points="1403.7,557.3 1397.5,557.3 1400.6,565 			"/>
		</g>
		<path class="st19" d="M1412.3,591.9H1338v-88.6c0-2.8,2.3-5.1,5.1-5.1h64.1c2.8,0,5.1,2.3,5.1,5.1V591.9z"/>
		<rect x="1338" y="512.8" class="st10" width="74.3" height="8"/>
		<rect x="1338" y="531.1" class="st10" width="74.3" height="8"/>
	</g>
	<path class="st20" d="M749.9,475.5l18.7-5.1c0,0,4.7,40.8,28.6,60.9c10.4,8.8,21.8,7.7,34.7,7c31.8-1.7,73.3-15,73.3-15l-0.2,68.9
		l-151.6-0.2L749.9,475.5z"/>
	<path class="st3" d="M929.4,588.9L929.4,588.9c-10.1,1.5-19.5-5.4-21-15.4l-18.5-120.7c-1.5-10.1,5.4-19.5,15.4-21v0
		c10.1-1.5,18.9,11,22.1,25.7l17.4,110.4C946.4,578,939.5,587.4,929.4,588.9z"/>
	<path class="st3" d="M866.4,577.3L866.4,577.3c-1.7-10,5-19.6,15-21.3l102.3-17.6l6.3,36.4l-102.3,17.6
		C877.7,594.1,868.1,587.3,866.4,577.3z"/>
	<path class="st21" d="M989.1,570.6c0,0,8.7,0,19.9,1.7c11.2,1.7,12.5,1.9,16,1.9c3.5,0,6.2-6.8-2.5-8.8c-8.7-2-6.8-3.6-2.3-3.4
		c4.6,0.2,9.5,1.4,14.5,6.1c5,4.7,11.6,6.5,12.2,1.2s-4.4-7.3-4.4-7.3s6.2,1.1,6.4-3.5c0.2-4.6-5-9.1-8.1-11.2c0,0,1.9-5.2-4.4-6.8
		c-6.2-1.7-16.6-6.2-23.7-7.1c-7.1-0.8-27.6,13.7-27.6,13.7L989.1,570.6z"/>
	<path class="st1" d="M1065.3,592.3H878.1c-3.8,0-6.9-3.1-6.9-6.9v-0.9c0-3.8,3.1-6.9,6.9-6.9h187.2c3.8,0,6.9,3.1,6.9,6.9v0.9
		C1072.1,589.2,1069,592.3,1065.3,592.3z"/>
	<path class="st3" d="M768.2,591.9L768.2,591.9c-10.1,1.5-19.5-5.4-21-15.4l-18.5-120.7c-1.5-10.1,5.4-19.5,15.4-21h0
		c10.1-1.5,19.5,5.4,21,15.4l18.5,120.7C785.2,581,778.3,590.4,768.2,591.9z"/>
	<path class="st3" d="M738.3,436.7c0,0,20.6-11.7,49-12.2c18.1-0.3-27.7,27.7-27.7,27.7L738.3,436.7z"/>
	<path class="st3" d="M750.1,577.3L750.1,577.3c-1.7-10,5-19.6,15-21.3l102.3-17.6l6.3,36.4l-102.3,17.6
		C761.4,594.1,751.8,587.3,750.1,577.3z"/>
	<path class="st21" d="M872.8,570.6c0,0,8.7,0,19.9,1.7c11.2,1.7,12.5,1.9,16,1.9c3.5,0,6.2-6.8-2.5-8.8c-8.7-2-6.8-3.6-2.3-3.4
		c4.6,0.2,9.5,1.4,14.5,6.1c5,4.7,11.6,6.5,12.2,1.2c0.6-5.4-4.4-7.3-4.4-7.3s6.2,1.1,6.4-3.5c0.2-4.6-5-9.1-8.1-11.2
		c0,0,1.9-5.2-4.4-6.8c-6.2-1.7-16.6-6.2-23.7-7.1c-7.1-0.8-27.6,13.7-27.6,13.7L872.8,570.6z"/>
	<path class="st3" d="M872.8,425.1c0,0,36.4-2.8,45.9,13.2c8.6,14.3-17.8,22.3-17.8,22.3L872.8,425.1z"/>
	<g>
		<path class="st1" d="M1221.5,592.3h-126.8c-3.8,0-6.9-3.1-6.9-6.9v-0.8c0-3.8,3.1-6.9,6.9-6.9h126.8c3.8,0,6.9,3.1,6.9,6.9v0.8
			C1228.4,589.2,1225.3,592.3,1221.5,592.3z"/>
		<path class="st1" d="M1304.3,545.3h-292.5c-4.5,0-8.1-3.6-8.1-8.1V359.1c0-4.5,3.6-8.1,8.1-8.1h292.5c4.5,0,8.1,3.6,8.1,8.1v178.1
			C1312.4,541.6,1308.8,545.3,1304.3,545.3z"/>
		<path class="st5" d="M1013,544.8V366.7c0-4.5,3.7-7.7,8.1-7.7H1313c-0.2-4-3.7-8-8.1-8h-292.5c-4.5,0-8.5,3.6-8.5,8.1v178.1
			c0,4.5,4,7.8,8.5,7.8h0.6C1013.1,545,1013,545,1013,544.8z"/>
		<rect x="1123.3" y="508" class="st5" width="69.7" height="69.7"/>
	</g>
	<g>
		<polygon class="st22" points="481.3,574.1 490.2,571.3 450.4,409.2 583.6,317.3 578.3,309.6 439.5,405.4 		"/>
		<polygon class="st22" points="499.3,581.1 508.2,578.3 468.4,416.2 601.6,324.3 596.3,316.6 457.5,412.4 		"/>
		<path class="st22" d="M565.5,291L565.5,291c-6.2,10.1-3.1,23.4,7,29.6l18.3,11.3l22.6-36.6L595.1,284
			C585,277.8,571.7,280.9,565.5,291z"/>
		
			<ellipse transform="matrix(0.525 -0.8511 0.8511 0.525 14.7577 708.2072)" class="st23" cx="641.9" cy="340.9" rx="17.7" ry="17.7"/>
		<polygon class="st0" points="615.4,393.6 615.1,393.4 590.8,331.9 613.4,295.3 678.9,289.9 679.2,290.1 		"/>
		<circle class="st0" cx="456.5" cy="410.1" r="18.3"/>
		<circle class="st22" cx="456.5" cy="410.1" r="8.3"/>
		<path class="st0" d="M453.5,591.9h81.6v-7.4c0-9.2-7.4-16.6-16.6-16.6h-48.4c-9.2,0-16.6,7.4-16.6,16.6V591.9z"/>
	</g>
	<path class="st21" d="M866.3,421.4c0,13.4-10.9,24.5-24.3,24.5h0h-0.2c-13.4,0-24.5-11.1-24.5-24.5v-21.5h49V421.4z"/>
	<path class="st24" d="M817.3,415.8c9.5,4.1,19.4,6.3,28.9,6.3c6.6,0,13.4-1.1,20.1-3.1v-15.5h-49V415.8z"/>
	<g>
		<path class="st18" d="M954.6,269.8c-1.9-9.7-9.7-16.8-18.9-18.3c5-6.6,7.2-15.2,5.5-24c-3-15.7-17.4-26.2-33-24.6
			c0.6-3.3,0.7-6.8,0-10.3c-2.8-14.6-16.9-24.2-31.5-21.4c-7.2,1.4-13.2,5.5-17.1,11.1c0-0.1,0-0.1,0-0.2
			c-2.6-13.6-15.7-22.5-29.3-19.9c-8.6,1.6-15.4,7.5-18.5,15.1c-6.4-5-14.8-7.3-23.4-5.7c-13,2.5-22.3,13.3-23.5,25.9
			c-4.7-1.7-10-2.2-15.3-1.2c-15.8,3-26.1,18.2-23.1,34c0.4,2.1,1,4.2,1.9,6.1c-16.6,3.3-27.4,19.4-24.2,36
			c2.1,11.2,10,19.8,20,23.3c-6.3,5.1-9.6,13.4-8,21.8c1.8,9.3,9,16.2,17.7,17.9c-1.8,3.6-2.5,7.9-1.6,12.1
			c1.9,9.9,11.1,16.6,20.9,15.6c-0.5,2.4-0.5,5,0,7.6c2.1,10.8,12.5,17.9,23.3,15.8c7.5-1.4,13.1-6.9,15.3-13.6
			c16.9,7.5,36.1,10.1,55.6,6.4c19.8-3.8,36.9-13.5,49.8-27c4.5,6.5,12.5,10,20.8,8.5c11.2-2.1,18.6-13,16.4-24.2
			c-0.4-2-1.1-3.9-1.9-5.6c0.6-0.1,1.2-0.2,1.8-0.3c12.7-2.4,21-14.7,18.6-27.4c-0.9-4.6-3.1-8.7-6.1-11.8
			C952.9,286.5,956.2,278.2,954.6,269.8z"/>
		<path class="st21" d="M847.7,412.3c-34.9,0-76.8-30.5-76.8-73.2v-66.2c0-34.4,27.9-62.4,62.4-62.4h29.4
			c34.4,0,62.4,27.9,62.4,62.4v66.2C924.9,381.8,894.6,412.3,847.7,412.3z"/>
		<rect x="752.7" y="267.6" class="st18" width="36.3" height="39"/>
		<circle class="st21" cx="770.5" cy="304.4" r="21.9"/>
		<path class="st6" d="M766.1,307.5c0-4.3,3.5-7.8,7.8-7.8c1.2,0,2.3,0.3,3.3,0.7c-1.4-2.3-3.8-3.8-6.7-3.8c-4.3,0-7.8,3.5-7.8,7.8
			c0,3.1,1.8,5.8,4.5,7C766.5,310.3,766.1,308.9,766.1,307.5z"/>
		<ellipse class="st1" cx="849.5" cy="307" rx="5" ry="8.8"/>
		<ellipse class="st1" cx="913" cy="307" rx="5" ry="8.8"/>
		<path class="st6" d="M876.4,316.1V332c0,0.7,0.9,1.3,1.6,1.3h9.4c2.6,0,4-3,2.3-4.9l-10.9-13C878.1,314.4,876.4,314.9,876.4,316.1
			z"/>
		<path class="st25" d="M855.9,342.1c0,13.6,11.1,24.7,24.7,24.7h0c13.6,0,24.7-11.1,24.7-24.7"/>
		<path class="st18" d="M929.1,245.9v-8.5c0-16.8-13.6-30.4-30.4-30.4h-97.1c-16.8,0-30.4,13.6-30.4,30.4v23.3c-1,2.8-1,5.6,0,8.4
			l3.4,6.5c5.5,6,15.2,7.2,23.4,2.5c7.8-4.5,11.6-12.9,9.9-20.4l1.9-1c2.8,1.5,6,2.4,9.4,2.4c8.7,0,16.1-5.7,18.6-13.7
			c3.2,9,12.5,15.5,23.4,15.5c8.1,0,15.4-3.6,19.8-9.2c1.6,6.4,6,12.6,12.6,16.8c12.2,7.7,27.4,5.7,33.9-4.4
			C930.9,258.7,931.1,252.1,929.1,245.9z"/>
	</g>
</g>
</svg>
