<svg width="254" height="167" viewBox="0 0 254 167" fill="none" xmlns="http://www.w3.org/2000/svg">
<g opacity="0.95">
<g opacity="0.9">
<path d="M253.688 83.1859H226.345H199.002H171.66H144.317" stroke="#DD1133" stroke-width="7.33"/>
<path d="M151.153 83.1859C151.153 81.4924 150.433 79.8682 149.151 78.6707C147.869 77.4732 146.13 76.8005 144.317 76.8005C142.504 76.8005 140.766 77.4732 139.484 78.6707C138.202 79.8682 137.482 81.4924 137.482 83.1859C137.482 84.8794 138.202 86.5035 139.484 87.701C140.766 88.8985 142.504 89.5713 144.317 89.5713C146.13 89.5713 147.869 88.8985 149.151 87.701C150.433 86.5035 151.153 84.8794 151.153 83.1859Z" fill="#DD1133"/>
<path d="M89.6321 108.728L62.2895 83.186H34.9469H7.60434M89.6321 108.728H116.975H144.317H171.66H199.002H226.345H253.688M89.6321 108.728H62.2895H34.9469" stroke="#FFC14A" stroke-width="7.33"/>
<path d="M41.7827 108.727C41.7827 107.034 41.0625 105.41 39.7806 104.212C38.4987 103.015 36.76 102.342 34.9471 102.342C33.1341 102.342 31.3955 103.015 30.1135 104.212C28.8316 105.41 28.1114 107.034 28.1114 108.727C28.1114 110.421 28.8316 112.045 30.1135 113.243C31.3955 114.44 33.1341 115.113 34.9471 115.113C36.76 115.113 38.4987 114.44 39.7806 113.243C41.0625 112.045 41.7827 110.421 41.7827 108.727ZM14.4401 83.1858C14.4401 81.4923 13.72 79.8682 12.438 78.6707C11.1561 77.4732 9.41743 76.8004 7.6045 76.8004C5.79158 76.8004 4.05291 77.4732 2.77098 78.6707C1.48904 79.8682 0.76886 81.4923 0.76886 83.1858C0.76886 84.8793 1.48904 86.5035 2.77098 87.701C4.05291 88.8985 5.79158 89.5712 7.6045 89.5712C9.41743 89.5712 11.1561 88.8985 12.438 87.701C13.72 86.5035 14.4401 84.8793 14.4401 83.1858Z" fill="#FFC14A"/>
<path d="M253.688 57.6443H226.345H199.002H171.66H144.317L116.975 83.1859M144.317 57.6443H116.975H144.317Z" stroke="#DD1133" stroke-width="7.33"/>
<path d="M123.81 83.186C123.81 81.4925 123.09 79.8684 121.808 78.6709C120.526 77.4734 118.788 76.8006 116.975 76.8006C115.162 76.8006 113.423 77.4734 112.141 78.6709C110.859 79.8684 110.139 81.4925 110.139 83.186C110.139 84.8795 110.859 86.5037 112.141 87.7012C113.423 88.8987 115.162 89.5714 116.975 89.5714C118.788 89.5714 120.526 88.8987 121.808 87.7012C123.09 86.5037 123.81 84.8795 123.81 83.186ZM123.81 57.6445C123.81 55.951 123.09 54.3268 121.808 53.1293C120.526 51.9318 118.788 51.2591 116.975 51.2591C115.162 51.2591 113.423 51.9318 112.141 53.1293C110.859 54.3268 110.139 55.951 110.139 57.6445C110.139 59.338 110.859 60.9621 112.141 62.1596C113.423 63.3571 115.162 64.0299 116.975 64.0299C118.788 64.0299 120.526 63.3571 121.808 62.1596C123.09 60.9621 123.81 59.338 123.81 57.6445Z" fill="#DD1133"/>
<path d="M199.002 134.269L171.66 159.811H144.317M199.002 134.269H226.345M199.002 134.269H171.66H144.317H116.975M116.975 134.269L89.6321 159.811H62.2895H34.9469H7.60434M116.975 134.269H89.6321H62.2895M226.345 134.269L199.002 159.811M226.345 134.269H253.688" stroke="white" stroke-width="7.33"/>
<path d="M69.125 134.269C69.125 132.576 68.4048 130.951 67.1229 129.754C65.841 128.556 64.1023 127.884 62.2894 127.884C60.4765 127.884 58.7378 128.556 57.4559 129.754C56.1739 130.951 55.4537 132.576 55.4537 134.269C55.4537 135.963 56.1739 137.587 57.4559 138.784C58.7378 139.982 60.4765 140.654 62.2894 140.654C64.1023 140.654 65.841 139.982 67.1229 138.784C68.4048 137.587 69.125 135.963 69.125 134.269ZM151.153 159.811C151.153 158.117 150.433 156.493 149.151 155.296C147.869 154.098 146.13 153.425 144.317 153.425C142.504 153.425 140.766 154.098 139.484 155.296C138.202 156.493 137.481 158.117 137.481 159.811C137.481 161.504 138.202 163.128 139.484 164.326C140.766 165.523 142.504 166.196 144.317 166.196C146.13 166.196 147.869 165.523 149.151 164.326C150.433 163.128 151.153 161.504 151.153 159.811ZM14.4399 159.811C14.4399 158.117 13.7197 156.493 12.4378 155.296C11.1558 154.098 9.41716 153.425 7.60423 153.425C5.79131 153.425 4.05264 154.098 2.77071 155.296C1.48878 156.493 0.7686 158.117 0.7686 159.811C0.7686 161.504 1.48878 163.128 2.77071 164.326C4.05264 165.523 5.79131 166.196 7.60423 166.196C9.41716 166.196 11.1558 165.523 12.4378 164.326C13.7197 163.128 14.4399 161.504 14.4399 159.811ZM205.838 159.811C205.838 158.117 205.118 156.493 203.836 155.296C202.554 154.098 200.815 153.425 199.002 153.425C197.189 153.425 195.451 154.098 194.169 155.296C192.887 156.493 192.167 158.117 192.167 159.811C192.167 161.504 192.887 163.128 194.169 164.326C195.451 165.523 197.189 166.196 199.002 166.196C200.815 166.196 202.554 165.523 203.836 164.326C205.118 163.128 205.838 161.504 205.838 159.811Z" fill="white"/>
<path d="M253.688 32.1028H226.345H199.002H171.66M226.345 32.1028L199.002 6.56122L226.345 32.1028Z" stroke="white" stroke-width="7.33"/>
<path d="M178.495 32.1029C178.495 30.4094 177.775 28.7852 176.493 27.5877C175.211 26.3903 173.473 25.7175 171.66 25.7175C169.847 25.7175 168.108 26.3903 166.826 27.5877C165.544 28.7852 164.824 30.4094 164.824 32.1029C164.824 33.7964 165.544 35.4205 166.826 36.618C168.108 37.8155 169.847 38.4883 171.66 38.4883C173.473 38.4883 175.211 37.8155 176.493 36.618C177.775 35.4205 178.495 33.7964 178.495 32.1029ZM205.838 6.56134C205.838 4.86783 205.118 3.24368 203.836 2.04619C202.554 0.848698 200.815 0.175949 199.002 0.175949C197.189 0.175949 195.451 0.848698 194.169 2.04619C192.887 3.24368 192.167 4.86783 192.167 6.56134C192.167 8.25485 192.887 9.87899 194.169 11.0765C195.451 12.274 197.189 12.9467 199.002 12.9467C200.815 12.9467 202.554 12.274 203.836 11.0765C205.118 9.87899 205.838 8.25485 205.838 6.56134Z" fill="white"/>
</g>
</g>
</svg>
