<?xml version="1.0" encoding="utf-8"?>
<svg viewBox="593.497 485.271 201.23 140.022" xmlns="http://www.w3.org/2000/svg">
  <g id="svgg" transform="matrix(1, 0, 0, 1, 494.101478, 442.792365)">
    <path id="path0" d="M 145.257 52.083 C 145.257 52.484 145.257 51.682 145.257 52.083 M 278.646 57.933 C 263.65 58.449 253.392 58.797 245.208 59.065 C 228.863 59.602 223.355 59.588 217.5 59.802 C 214.349 59.917 208.824 60.153 205.1 60.266 C 196.91 60.515 193.137 60.794 192.854 60.969 C 192.715 61.054 192.776 62.676 193.307 65.502 C 193.756 67.895 194.074 69.983 194.074 70.081 C 194.074 70.312 195.989 70.255 200.1 70.006 C 203.586 69.795 210.09 69.42 213.125 69.255 C 214.099 69.202 216.49 69.062 218.438 68.944 C 220.385 68.826 223.76 68.643 225.938 68.536 C 233.944 68.144 238.097 67.921 241.25 67.716 C 243.026 67.6 247.245 67.359 250.625 67.179 C 254.005 66.999 258.083 66.762 259.688 66.652 C 261.292 66.542 264.573 66.357 266.979 66.24 C 271.631 66.014 276.152 65.649 276.875 65.44 C 276.932 65.424 278.337 63.968 281.627 61.907 C 284.069 60.378 286.551 58.807 287.143 58.417 L 288.22 57.708 L 285.724 57.742 C 284.352 57.76 281.167 57.846 278.646 57.933 M 147.813 59.977 C 146.448 60.316 143.676 61.235 142.013 62.238 C 138.049 64.629 135.82 68.161 134.142 73.75 C 133.639 75.425 133.333 82.01 133.663 84.331 C 134.729 91.832 144.323 98.381 153.854 99.395 C 165.609 100.645 172.552 95.76 176.934 86.892 C 178.977 82.758 180.695 75.211 178.413 79.635 C 174.115 87.965 163.312 92.522 155.729 89.062 C 144.078 83.745 145.071 65.321 157.056 64.402 C 161.086 64.093 164.07 66.119 166.708 69.794 C 168.029 71.634 168.287 71.493 168.42 70.34 C 168.497 69.67 166.945 66.91 165.917 65.773 C 165.733 65.57 165.486 65.409 165.572 65.314 C 165.659 65.219 165.049 64.799 164.654 64.348 C 161.252 60.468 153.387 58.591 147.813 59.977 M 232.245 83.069 C 232.735 83.113 233.485 83.113 233.912 83.068 C 234.338 83.023 233.938 82.987 233.021 82.988 C 232.104 82.989 231.755 83.025 232.245 83.069 M 265.104 84.179 C 263.137 84.312 258.901 83.804 245.496 84.394 C 244.063 84.457 240.422 85.027 237.5 85.137 C 234.578 85.247 229.042 84.963 225.318 85.129 C 221.594 85.295 217.099 86.277 215.208 86.343 C 213.318 86.41 211.221 86.114 210.304 86.175 C 209.388 86.237 205.863 86.521 202.654 86.624 C 199.446 86.727 196.479 86.969 196.244 87.04 C 195.872 87.152 194.584 91.41 194.583 92.405 C 194.583 92.633 197.202 92.6 203.646 92.291 C 206.052 92.176 209.615 92.031 211.563 91.969 C 213.51 91.908 216.885 91.768 219.063 91.659 C 221.24 91.551 225.74 91.368 229.063 91.254 C 232.385 91.14 235.573 90.998 236.146 90.937 C 236.719 90.876 239.953 90.734 243.333 90.622 C 246.714 90.509 251.589 90.327 254.167 90.218 C 256.745 90.109 259.668 90.003 260.663 89.982 L 262.472 89.944 L 264.517 88.628 C 265.642 87.904 267.617 86.645 268.906 85.829 C 270.195 85.014 271.521 83.967 271.521 83.861 C 271.521 83.642 268.619 83.833 265.16 84.066 M 192.555 94.108 C 192.872 94.156 193.34 94.154 193.597 94.105 C 193.853 94.056 193.594 94.016 193.021 94.018 C 192.448 94.019 192.238 94.06 192.555 94.108 M 256.354 102.918 C 255.896 103.007 254.021 102.94 252.188 103.015 C 250.354 103.09 246.51 103.484 243.646 103.645 C 240.781 103.807 236.984 103.867 235.208 103.931 C 233.432 103.995 230.573 103.706 228.854 103.82 C 225.986 104.009 220.811 104.438 208.958 105.023 C 206.495 105.144 202.393 105.48 199.113 105.596 C 195.833 105.712 193.458 106.253 193.229 106.256 L 192.813 106.263 L 193.229 106.579 C 193.63 106.883 195.642 107.971 200.521 110.524 C 201.781 111.183 202.93 111.816 203.074 111.93 C 203.232 112.055 203.978 112.083 204.949 112.001 C 205.837 111.926 208.578 111.777 211.042 111.669 C 218.174 111.358 224.077 111.065 229.792 110.738 C 232.714 110.571 237.354 110.334 240.104 110.213 C 242.854 110.091 247.214 109.883 249.792 109.75 L 254.479 109.509 L 256.563 107.631 C 259.944 104.584 261.667 102.964 261.667 102.832 C 261.667 102.655 257.349 102.725 256.354 102.918 M 127.94 114.323 C 123.184 119.087 120.384 122.197 117.279 127.366 C 115.614 130.137 115.6 129.667 117.158 130.985 C 119.487 132.956 120.335 133.682 120.416 132.969 C 120.635 131.052 125.974 119.97 129.971 113.958 C 131.075 112.297 131.675 111.307 132.46 110.433 C 135.133 107.456 131.288 110.97 127.94 114.323 M 188.404 131.597 C 188.196 131.922 187.715 132.598 187.337 133.1 C 185.533 135.495 182.561 142.95 183.801 143.064 C 184.226 143.103 187.128 143.909 189.144 144.81 C 190.646 145.482 191.179 145.523 190.568 144.657 C 189.429 143.042 187.947 136.547 188.711 132.414 C 188.972 131.002 188.928 130.781 188.404 131.597 M 171.857 146.955 C 166.671 148.285 162.562 150.102 159.531 152.867 C 158.693 153.631 158.757 153.9 161.094 154.055 C 164.457 154.278 167.23 154.874 169.844 155.938 C 170.378 156.155 170.305 156.553 169.305 158.857 C 168.303 161.164 167.595 163.223 167.377 164.46 C 167.298 164.907 167.106 165.517 166.951 165.814 C 166.796 166.111 166.669 166.518 166.668 166.719 C 166.667 167.08 166.349 167.227 166.215 166.927 C 166.126 166.727 163.643 165.417 163.352 165.417 C 163.232 165.417 162.737 165.862 162.253 166.406 C 161.768 166.951 159.094 169.695 156.311 172.505 C 153.527 175.316 151.25 177.73 151.25 177.87 C 151.25 178.068 153.523 178.125 161.35 178.125 L 171.45 178.125 L 171.557 177.656 C 171.616 177.398 171.754 176.766 171.864 176.25 C 173.491 168.635 180.065 159.979 186.771 156.622 C 187.344 156.335 187.926 156.227 188.073 156.192 C 188.891 155.999 188.14 155.533 187.093 155.005 C 183.857 153.371 182.446 151.215 182.524 148.021 L 182.586 146.125 L 178.542 145.932 C 174.61 145.897 174.407 146.302 171.857 146.955 M 142.677 150.249 C 136.358 162.365 129.828 177.415 130.66 177.943 C 130.813 178.04 134.722 178.12 139.347 178.122 L 147.756 178.125 L 147.62 177.448 C 146.326 170.969 148.384 162.11 152.691 155.626 C 153.159 154.922 153.539 154.282 153.535 154.204 C 153.506 153.603 147.405 150.45 145.208 149.9 C 144.464 149.714 143.695 149.515 143.499 149.457 C 143.243 149.382 143.015 149.603 142.677 150.249" stroke="none" fill-rule="evenodd" style="fill: rgb(169, 171, 178);"/>
    <path id="path1" d="M 118.345 44.635 C 118.361 44.984 120.796 47.028 122.147 47.828 C 124.612 49.287 125.422 49.368 126.914 48.305 C 127.685 47.756 127.63 47.712 125.903 47.495 C 124.196 47.28 122.436 46.537 120.692 45.293 C 119.448 44.406 118.32 44.09 118.345 44.635 M 166.758 44.088 C 166.758 44.184 167.2 44.431 167.821 44.899 C 168.306 45.265 170.232 46.687 171.235 47.474 C 173.331 49.117 172.66 48.4 171.272 46.991 C 169.236 44.922 167.687 42.892 167.687 43.629 M 294.163 47.865 C 293.444 49.784 292.49 52.301 292.043 53.458 L 291.231 55.562 L 287.022 55.702 C 284.707 55.778 279.953 55.932 276.458 56.042 C 272.964 56.152 267.479 56.338 264.271 56.456 C 261.063 56.573 254.172 56.808 248.958 56.979 C 243.745 57.149 238.026 57.337 236.25 57.395 C 223.964 57.803 219.649 57.949 214.688 58.125 C 211.594 58.235 205.594 58.43 201.354 58.557 C 191.115 58.865 190.734 58.584 190.749 59.388 C 190.77 60.481 192.99 70.931 193.218 71.091 C 193.79 71.49 195.499 73.295 195.377 72.81 C 195.311 72.552 194.655 70.266 194.571 70.208 C 194.288 70.015 192.729 61.158 192.954 61.019 C 193.237 60.844 196.813 60.665 205 60.416 C 208.724 60.303 214.349 60.117 217.5 60.002 C 223.377 59.787 228.945 59.599 245.313 59.062 C 250.469 58.893 258.859 58.614 263.958 58.442 C 283.967 57.768 286.62 57.692 288.229 57.751 C 292.125 57.894 295.625 57.725 295.625 57.393 C 295.625 57.22 295.71 56.915 295.815 56.716 C 295.919 56.517 296.166 55.885 296.362 55.313 C 296.559 54.74 296.841 53.99 296.99 53.646 C 297.139 53.302 297.945 51.177 298.78 48.922 C 299.616 46.668 300.625 44.878 300.625 44.7 C 300.625 44.423 300.243 44.375 298.048 44.375 L 295.471 44.375 L 294.163 47.865 M 159.808 53.698 C 160.422 54.725 159.551 53.268 159.808 53.698 M 146.667 58.139 C 143.856 58.873 140.749 60.586 138.599 62.589 C 134.2 66.684 132.19 73.018 132.934 80.439 C 133.375 84.837 134.028 84.678 134.038 79.854 C 134.047 75.129 133.879 74.933 135.119 71.402 C 137.928 63.404 146.461 58.677 154.931 60.196 C 159.517 61.018 161.982 61.95 164.757 64.792 C 166.168 66.237 165.149 64.145 163.426 62.2 C 159.302 57.546 152.637 56.58 146.667 58.139 M 167.755 60.885 C 168.384 62.234 168.714 64.011 168.701 67.327 C 168.689 70.437 168.154 69.719 168.665 70.682 C 169.139 71.577 169.676 71.948 169.73 71.13 C 169.779 70.383 169.786 69.832 169.802 68.074 L 169.604 64.602 L 169.232 62.913 C 168.496 61.516 167.52 60.035 167.256 59.871 C 167.088 59.766 167.588 60.628 167.755 60.885 M 277.435 74.372 C 277.268 74.944 276.768 76.722 276.326 78.324 L 275.521 81.237 L 274.688 81.343 C 274.229 81.401 270.948 81.483 267.396 81.599 C 261.036 81.806 255.383 82.098 246.771 82.5 C 244.365 82.612 239.818 82.798 236.667 82.912 C 233.516 83.027 228.828 83.218 226.25 83.338 C 220.229 83.617 209.135 84.083 201.042 84.395 C 197.547 84.53 194.512 84.704 194.298 84.782 C 193.883 84.933 191.324 93.364 191.572 93.765 C 191.637 93.871 192.287 93.958 193.015 93.958 L 194.338 93.958 L 194.476 93.073 C 194.845 90.697 195.918 87.318 196.344 87.19 C 196.579 87.119 199.396 86.978 202.604 86.875 C 205.813 86.772 209.188 86.638 210.104 86.576 C 211.021 86.515 213.318 86.41 215.208 86.343 C 217.099 86.277 221.693 86.087 225.417 85.921 C 229.141 85.755 234.578 85.529 237.5 85.418 C 240.422 85.308 244.031 85.165 245.521 85.101 C 247.01 85.037 251.417 84.847 255.313 84.679 C 259.208 84.511 263.76 84.284 265.427 84.174 C 267.094 84.064 270.141 84.016 272.198 84.068 C 277.445 84.2 279.375 84.091 279.562 83.477 C 279.687 83.068 279.739 82.478 280.956 78.438 C 281.864 75.421 281.909 74.873 282.12 74.115 C 282.213 73.782 282.343 73.524 282.108 73.437 C 281.926 73.37 281.08 73.333 279.894 73.333 L 277.74 73.333 L 277.435 74.372 M 99.414 97.648 C 99.401 98.954 99.478 100.039 99.591 100.109 C 99.701 100.177 99.792 100.827 99.792 101.553 C 99.792 102.278 99.933 103.609 100.107 104.509 C 100.71 107.647 100.882 108.439 101 108.637 C 101.066 108.747 101.143 109.054 101.171 109.321 C 101.345 110.946 104.1 117.324 105.875 120.208 C 107.96 123.597 111.352 128.148 114.019 131.137 L 114.94 132.17 L 115.491 131.297 C 115.794 130.817 116.042 130.285 116.042 130.113 C 116.042 129.405 119.659 123.889 122.697 119.964 C 124.173 118.057 131.778 110.667 132.091 110.417 C 132.896 109.775 135.978 107.588 137.008 105.648 C 138.816 102.245 138.82 102.27 136.637 103.672 C 128.44 108.935 121.061 116.978 115.733 126.458 C 115.185 127.432 114.695 128.275 114.644 128.332 C 114.544 128.443 114.358 128.234 111.646 124.969 C 105.151 117.148 101.517 109.602 100.326 101.458 C 100.15 100.255 99.879 98.38 99.723 97.292 L 99.439 95.313 L 99.414 97.648 M 265.419 97.865 C 265.29 98.523 265.15 99.168 265.108 99.297 C 265.014 99.59 263.357 99.752 258.958 99.898 C 257.068 99.961 254.115 100.105 252.396 100.218 C 250.677 100.33 246.505 100.561 243.125 100.731 C 226.545 101.565 216.396 102.084 214.792 102.18 C 213.104 102.282 206.86 102.59 202.396 102.792 C 197.249 103.026 191.007 103.377 189.516 103.517 L 187.887 103.671 L 183.996 101.505 C 181.855 100.314 180.015 99.254 179.906 99.149 C 179.422 98.683 178.115 98.917 175.575 99.988 C 174.716 100.35 173.817 100.716 172.59 101.151 C 171.363 101.586 170.608 101.871 169.986 102.155 C 169.363 102.439 168.004 103.046 166.965 103.503 C 165.926 103.96 163.535 105.085 161.652 106.003 C 159.77 106.921 157.901 107.825 157.5 108.01 C 155.456 108.958 154.807 109.572 156.019 109.756 C 157.194 109.934 162.535 108.559 167.188 106.932 C 169.066 106.274 169.937 105.913 172.87 104.574 C 173.36 104.35 173.402 104.404 174.082 104.117 C 174.775 103.825 175.659 103.69 177.979 102.666 C 180.335 101.626 180.849 101.709 184.271 103.678 C 190.032 106.994 190.212 107.055 192.5 106.457 C 193.188 106.278 198.814 105.924 208.958 105.424 C 220.811 104.839 225.986 104.567 228.854 104.379 C 230.573 104.267 233.339 104.124 235 104.062 C 238.939 103.914 248.944 103.388 253.438 103.091 C 255.385 102.962 259.565 102.839 262.726 102.816 C 268.89 102.772 268.77 102.784 268.961 101.915 C 269.028 101.613 269.191 100.485 269.375 99.375 C 269.868 96.408 270.131 96.667 267.723 96.667 L 265.655 96.667 L 265.419 97.865 M 168.438 119.12 C 168.094 119.318 167.16 119.995 166.363 120.625 C 165.566 121.255 164.614 121.958 164.249 122.188 C 163.361 122.744 161.71 124.099 159.715 125.909 C 158.813 126.727 158.002 127.443 157.912 127.5 C 154.854 129.45 142.572 142.966 139.513 147.745 C 139.123 148.355 138.433 149.323 137.981 149.896 C 137.529 150.469 136.888 151.406 136.557 151.979 C 136.226 152.552 135.715 153.234 134.979 154.33 C 132.798 157.578 133.113 157.302 130.793 161.44 C 129.201 164.279 127.421 167.93 125.908 171.458 C 125.049 173.464 124.212 175.37 124.048 175.694 C 123.884 176.018 123.75 176.443 123.75 176.637 C 123.75 176.832 123.604 177.199 123.426 177.454 L 123.101 177.917 L 113.326 177.917 L 103.55 177.917 L 101.481 180.049 C 100.342 181.222 99.455 182.253 99.51 182.341 C 99.564 182.428 105.038 182.5 111.674 182.5 L 123.74 182.5 L 124.043 182.031 C 124.21 181.773 124.552 180.953 124.805 180.208 C 125.057 179.464 125.384 178.62 125.533 178.333 C 125.681 178.047 126.016 177.25 126.277 176.563 C 126.538 175.875 126.857 175.172 126.986 175 C 127.115 174.828 127.383 174.249 127.58 173.713 C 128.1 172.304 132.028 164.628 132.568 163.967 C 132.712 163.79 132.964 163.365 133.128 163.021 C 133.291 162.677 133.669 162.021 133.967 161.563 C 134.264 161.104 134.629 160.428 134.777 160.059 C 134.924 159.69 135.2 159.349 135.356 159.131 C 135.612 158.774 136.93 157.005 137.564 155.833 C 137.782 155.432 138.171 154.87 138.431 154.583 C 138.69 154.297 139.526 153.125 140.289 151.979 C 142.079 149.292 144.116 146.64 145.09 145.729 C 145.617 145.236 150.937 138.784 155.394 133.232 C 157.086 131.124 165.951 122.211 167.912 120.645 C 169.901 119.058 170.235 118.088 168.438 119.12 M 191.15 123.692 C 190.192 124.317 187.096 127.379 186.532 128.258 C 186.322 128.586 185.868 129.233 185.523 129.697 C 183.687 132.164 181.904 137.413 181.726 141.091 L 181.662 142.396 L 177.06 142.531 C 168.734 142.773 161.657 145.523 157.095 150.291 C 156.299 151.122 156.122 151.178 155.641 150.746 C 154.828 150.014 149.301 147.083 148.735 147.083 C 148.554 147.083 147.966 147.622 147.429 148.281 C 146.264 149.712 146.35 149.872 148.699 150.621 C 150.992 151.353 155.557 153.731 156.803 154.843 C 157.365 155.345 157.715 155.177 158.846 153.861 C 161.336 150.964 166.248 148.377 171.975 146.946 L 174.896 146.216 L 179.271 146.279 L 183.646 146.342 L 183.772 143.744 C 184.011 138.812 186.697 134.254 189.446 130.643 C 190.447 129.328 190.538 129.212 190.942 128.432 C 191.214 127.907 191.504 126.907 191.749 126.277 C 192.98 123.112 193.708 121.866 192.054 122.948 M 255.259 123.389 C 252.822 124.722 248.135 126.875 247.668 126.875 C 247.532 126.875 246.665 127.102 245.741 127.379 C 241.732 128.583 240.536 128.797 236.25 129.083 C 233.901 129.239 231.62 129.538 231.174 129.596 C 230.668 129.662 225.306 130.09 220.809 129.875 C 214.465 129.572 215.67 130.085 212.961 133.333 C 211.413 135.189 211.597 138.689 212.27 140.581 C 212.837 142.174 214.358 143.486 214.381 143.115 C 214.384 143.063 214.421 142.036 214.463 140.833 C 214.556 138.145 214.787 137.574 216.495 135.81 C 218.733 133.498 218.12 133.652 225.303 133.606 C 231.11 133.569 232.749 133.46 235.208 132.949 C 239.403 132.077 240.554 131.73 245.63 129.813 C 247.584 129.075 251.432 126.922 253.021 125.677 C 253.606 125.219 255.372 124.193 255.793 124.067 C 256.079 123.981 256.248 123.789 256.21 123.593 C 256.123 123.146 255.821 123.081 255.259 123.389 M 193.354 142.969 C 193.377 143.268 194.396 145.149 195.313 146.584 C 196.402 148.292 198.351 150.183 200.501 151.619 L 202.584 153.01 L 205.712 152.948 C 207.432 152.914 208.894 152.852 208.959 152.812 C 209.025 152.771 210.04 152.821 211.215 152.923 C 214.687 153.225 218.478 155.062 221.198 157.762 C 222.941 159.492 223.045 159.436 221.827 157.421 C 219.862 154.168 216.751 151.525 213.021 149.939 C 210.634 148.924 210.21 148.867 204.896 148.86 L 200.125 148.75 L 198.333 147.636 C 196.529 145.96 194.966 144.627 194.013 143.427 C 193.353 142.596 192.72 140.746 193.041 141.864 M 228.056 145.347 C 226.992 145.668 227.943 146.283 228.719 147.752 C 229.161 148.587 230.661 151.488 232.053 154.197 L 234.583 159.124 L 234.583 168.222 C 234.583 174.094 234.507 177.462 234.368 177.722 C 234.159 178.111 233.832 178.125 224.767 178.125 L 215.382 178.125 L 213.472 180.127 C 212.422 181.229 211.531 182.213 211.493 182.315 C 211.453 182.422 216.936 182.5 224.44 182.5 C 236.116 182.5 237.468 182.466 237.582 182.17 C 237.651 181.989 237.708 177.672 237.708 172.576 L 237.708 163.312 L 236.233 160.369 C 235.422 158.75 234.122 156.2 233.344 154.702 C 232.566 153.205 231.157 150.456 230.213 148.594 C 228.561 145.338 228.606 144.904 228.208 145.241" stroke="none" fill-rule="evenodd" style="fill: rgb(199, 16, 47);"/>
    <path id="path2" d="M 118.234 42.784 C 117.853 43.062 117.859 43.091 118.41 43.602 C 119.307 44.434 122.374 46.437 123.151 46.699 C 123.538 46.829 123.959 47.017 124.086 47.116 C 124.214 47.215 124.996 47.381 125.823 47.485 C 126.65 47.589 127.371 47.718 127.425 47.772 C 127.575 47.922 126.358 48.734 125.582 49.002 C 124.123 49.505 118.973 53.134 116.042 55.725 C 110.748 60.405 105.919 67.178 103.638 73.125 C 100.192 82.112 98.76 90.577 99.656 96.667 C 99.834 97.87 100.132 99.932 100.32 101.25 C 101.566 109.99 105.429 117.762 112.823 126.406 C 114.79 128.706 114.509 128.663 115.498 126.822 C 120.262 117.957 128.414 108.968 136.3 103.883 C 138.693 102.34 138.834 102.33 138.027 103.769 C 137.744 104.274 137.264 105.156 136.962 105.729 C 136.659 106.302 136.165 107.099 135.863 107.5 C 134.435 109.398 124.788 129.502 124.791 130.573 C 124.791 130.716 124.41 132.34 123.877 133.984 C 123.215 136.027 122.645 138.384 121.866 142.292 C 121.513 144.068 121.14 145.896 121.037 146.354 C 120.935 146.813 120.471 149.203 120.006 151.667 C 119.244 155.703 118.691 158.555 118.15 161.25 C 117.982 162.087 117.891 163.16 117.685 164.343 C 117.383 166.071 117.344 166.129 114.958 164.802 L 113.031 163.729 L 110.209 166.604 C 102.704 174.253 99.364 177.767 99.485 177.888 C 99.689 178.092 122.764 177.895 123.16 177.687 C 123.351 177.586 123.573 177.206 123.653 176.843 C 123.733 176.479 124.069 175.579 124.399 174.842 C 124.73 174.106 125 173.425 125 173.331 C 125 173.236 125.502 172.096 126.116 170.798 C 126.73 169.5 127.298 168.229 127.378 167.975 C 127.459 167.721 128.142 166.361 128.896 164.954 C 130.39 162.168 131.223 160.649 133.532 156.5 C 133.87 155.893 134.286 155.347 134.625 154.815 C 134.964 154.283 135.432 153.7 135.833 153.049 C 136.234 152.398 137.124 151.094 137.811 150.151 C 138.498 149.209 139.344 147.969 139.692 147.396 C 140.602 145.897 144.244 141.463 148.438 136.748 C 151.181 133.664 154.687 130.166 157.156 128.052 C 161.851 124.03 163.205 122.988 164.363 122.083 C 165.287 121.361 165.207 121.397 166.154 120.729 C 167.101 120.061 167.895 119.375 168.032 119.375 C 168.17 119.375 169.483 118.623 169.483 119.017 C 169.483 119.182 168.834 119.942 167.919 120.665 C 165.557 122.53 157.161 131.08 154.687 134.139 C 153.542 135.557 152.055 137.385 151.384 138.202 C 148.011 142.311 145.575 145.61 145.691 145.913 C 145.793 146.18 148.214 147.089 148.815 147.085 C 149.542 147.081 154.548 149.773 155.66 150.765 C 156.069 151.131 156.502 150.954 157.292 150.1 C 161.431 145.622 168.949 142.752 177.143 142.523 L 181.683 142.396 L 181.769 140.816 C 181.958 137.326 183.928 131.48 185.561 129.563 C 185.893 129.173 186.313 128.617 186.494 128.327 C 187.558 126.629 191.474 123.125 192.307 123.125 C 192.74 123.125 192.688 123.966 192.19 125 C 192.052 125.286 191.725 126.177 191.463 126.979 C 191.201 127.781 190.795 128.906 190.561 129.479 C 189.961 130.95 189.844 133.729 190.304 135.566 C 190.498 136.343 190.761 137.396 190.888 137.905 C 191.015 138.415 191.336 139.135 191.601 139.831 C 191.866 140.527 191.648 140.17 192.083 140.955 C 192.417 141.557 193.344 142.536 193.464 142.719 C 193.715 143.1 193.707 143.027 193.937 143.377 C 194.527 144.275 196.416 146.337 198.438 147.631 L 200.116 148.793 L 204.309 148.786 C 209.782 148.692 210.904 148.884 214.167 150.467 C 218.009 152.332 221.467 155.873 222.761 159.265 C 223.646 161.586 223.921 162.435 224.057 163.27 L 224.199 164.144 L 223.193 164.207 L 222.188 164.271 L 215.677 170.966 C 212.096 174.649 209.167 177.766 209.167 177.893 C 209.167 178.373 234.11 178.204 234.368 177.722 C 234.507 177.462 234.583 174.093 234.583 168.217 L 234.583 159.114 L 232.258 154.609 C 230.978 152.131 229.519 149.307 229.014 148.333 C 228.509 147.359 227.958 146.165 227.79 145.679 C 227.357 144.424 225.838 141.667 225.581 141.667 C 225.462 141.667 225.003 142.078 224.56 142.581 C 222.381 145.057 217.773 145.45 215.064 143.391 C 214.698 143.113 215.066 143.381 214.292 142.905 C 212.745 141.954 211.15 137.081 212.291 134.546 C 212.762 133.501 214.638 131.27 215.778 130.529 L 216.752 129.896 L 221.241 129.947 C 228.022 130.025 234.026 129.454 237.188 128.43 C 242.545 126.695 245.649 125.22 249.893 122.393 C 250.923 121.707 252.024 121.033 252.341 120.895 C 252.945 120.633 253.136 120 252.611 120 C 252.443 120 251.717 120.323 250.997 120.719 C 248.927 121.855 245.67 123.234 243.854 123.743 C 242.938 123.999 242 124.282 241.771 124.371 C 236.354 126.471 221.655 126.241 216.389 123.975 C 215.835 123.737 215.224 123.542 215.031 123.542 C 214.837 123.542 214.165 123.266 213.538 122.93 C 211.877 122.039 209.513 120.897 208.111 120.307 C 207.44 120.024 205.644 118.982 204.122 117.991 C 199.459 114.956 198.083 114.083 196.458 113.134 C 195.599 112.631 194.114 111.714 193.158 111.096 C 192.202 110.478 191.283 109.92 191.116 109.856 C 190.949 109.791 190.043 109.275 189.104 108.707 C 188.164 108.139 186.82 107.412 186.117 107.09 C 185.413 106.768 184.335 106.137 183.721 105.688 C 179.516 102.611 179.07 102.59 172.604 105.159 C 171.573 105.568 170.26 106.024 169.688 106.171 C 169.115 106.318 167.521 106.812 166.146 107.269 C 160.538 109.133 156.62 110.058 155.748 109.724 C 155.1 109.475 155.754 108.832 157.546 107.958 C 166.168 103.754 172.09 101.269 172.682 101.074 C 173.851 100.689 175.406 100.035 176.551 99.538 C 177.9 98.952 179.38 98.839 180.531 99.531 C 182.848 100.925 187.779 103.61 187.996 103.596 C 188.124 103.587 190.01 103.481 192.188 103.359 C 194.365 103.237 197.786 103.041 199.792 102.923 C 201.797 102.805 205.5 102.613 208.021 102.496 C 216.42 102.105 220.697 101.888 224.271 101.672 C 226.219 101.554 230.766 101.313 234.375 101.137 C 237.984 100.961 243.469 100.677 246.563 100.506 C 249.656 100.335 255.021 100.065 258.485 99.905 C 265.649 99.574 265.147 99.975 265.39 98.682 C 265.485 98.177 265.636 97.141 265.715 96.829 C 265.794 96.517 265.937 95.746 266.078 95.162 L 266.146 94.063 L 228.882 94.021 C 208.387 93.998 191.569 93.931 191.51 93.871 C 191.18 93.541 193.922 84.908 194.403 84.762 C 194.674 84.68 198.693 84.464 203.333 84.283 C 213.677 83.878 219.338 83.639 228.125 83.233 C 235.786 82.879 243.736 82.565 251.979 82.291 C 255.073 82.188 258.236 81.933 259.479 81.893 C 260.722 81.853 264.229 81.66 267.708 81.566 C 271.202 81.471 274.391 81.396 274.792 81.331 L 275.521 81.211 L 276.563 77.446 C 277.135 75.376 277.632 74.033 277.833 73.45 C 278.034 72.867 277.99 72.947 278.206 72.446 C 278.422 71.945 278.692 71.637 278.457 71.354 C 278.15 70.984 198.289 70.884 195.467 71.251 C 193.543 71.501 193.009 71.294 192.855 70.238 C 192.794 69.821 192.304 67.198 191.765 64.41 C 191.143 61.191 190.858 59.267 190.984 59.141 C 191.194 58.931 196.368 58.679 207.5 58.338 C 211.224 58.224 219.849 57.944 226.667 57.715 C 233.484 57.486 243.375 57.155 248.646 56.978 C 253.917 56.801 262.12 56.521 266.875 56.356 C 271.63 56.191 279.058 55.943 283.381 55.805 L 291.241 55.554 L 291.759 54.183 C 292.043 53.429 292.985 50.938 293.852 48.646 C 294.718 46.354 296.09 43.695 296.167 43.447 C 296.541 42.239 300.635 42.502 231.173 42.504 C 172.43 42.506 165.325 42.557 165.839 42.973 C 165.893 43.017 166.383 43.35 166.927 43.714 C 169.439 45.392 169.891 45.747 171.145 47.033 C 171.88 47.786 172.472 48.449 172.677 48.675 C 172.882 48.902 172.798 48.784 173.123 49.239 C 173.448 49.694 173.555 49.961 174.124 50.677 C 175.448 52.343 176.521 54.273 178.313 58.212 C 180.152 62.255 180.921 71.646 179.767 75.956 C 179.524 76.863 179.247 78.191 179.15 78.908 C 176.48 98.705 155.427 106.196 139.368 93.064 C 129.76 85.207 130.805 66.758 141.21 60.57 C 150.855 54.834 161.103 57.592 166.787 67.453 L 168.435 70.313 L 168.573 69.193 C 168.861 66.853 168.627 63.117 168.108 61.771 C 167.843 61.083 167.606 60.404 167.581 60.262 C 167.523 59.919 166.459 58.598 165.591 57.791 C 164.542 56.815 161.192 55.076 160.748 54.792 C 160.612 54.705 160.297 54.294 159.839 53.763 C 159.327 53.17 158.255 50.743 156.256 48.736 C 152.349 44.814 149.307 43.335 143.854 42.707 C 140.962 42.374 118.703 42.44 118.234 42.784 M 147.774 49.978 C 147.965 50.127 148.134 50.162 148.409 50.324 C 148.684 50.486 148.614 50.437 149.072 50.69 C 149.53 50.943 149.744 50.943 150.175 51.341 C 150.706 51.832 150.867 51.746 150.779 52.625 C 150.687 53.551 150.315 53.935 149.553 54.46 C 149.087 54.781 148.866 54.792 148.125 54.792 C 147.384 54.792 147.389 54.845 146.875 54.571 C 146.33 54.28 145.626 53.453 145.521 53.125 C 145.248 52.271 145.372 51.633 145.436 51.352 C 145.659 50.371 146.442 49.686 146.875 49.535" stroke="none" fill-rule="evenodd" style="fill: rgb(253, 253, 253);"/>
  </g>
</svg>